<?xml version="1.0" encoding="UTF-8"?>
<svg width="41px" height="42px" viewBox="0 0 41 42" version="1.1" xmlns="http://www.w3.org/2000/svg" xmlns:xlink="http://www.w3.org/1999/xlink">
    <!-- Generator: Sketch 48.2 (47327) - http://www.bohemiancoding.com/sketch -->
    <title>check copy 2</title>
    <desc>Created with Sketch.</desc>
    <defs></defs>
    <g id="Page-1" stroke="none" stroke-width="1" fill="none" fill-rule="evenodd">
        <g id="check-copy-2" fill="#5289B3" fill-rule="nonzero">
            <path d="M40.5069641,23.4505099 C41.4139619,24.7036603 41.0289157,26.4803873 39.6855322,27.2185444 L38.5218369,27.8708693 C37.554943,28.4030291 37.041548,29.5016815 37.2383494,30.5917507 L37.4779337,31.9049837 C37.760301,33.424214 36.6479452,34.8576121 35.0992036,34.9434443 L33.7643767,35.0206933 C32.6605775,35.0893591 31.7193533,35.8532658 31.4284295,36.9175854 L31.0776096,38.2050687 C30.6668936,39.7071326 29.0411428,40.5053722 27.6121935,39.9131299 L26.3800455,39.4067198 C25.3618121,38.9861419 24.1895602,39.2693882 23.4622507,40.1019608 L22.5894792,41.114781 C21.5712458,42.2820992 19.7658068,42.2992656 18.7304602,41.1405307 L17.8405756,40.1448769 C17.0961529,39.3208876 15.923901,39.0633909 14.9056676,39.5011352 L13.6820762,40.033295 C12.2531269,40.651287 10.6188195,39.878797 10.1909903,38.3853164 L9.82305728,37.097833 C9.51502029,36.0335135 8.56523957,35.27819 7.46144035,35.2352739 L6.1266134,35.1751913 C4.57787186,35.1151087 3.43984631,33.6988771 3.69654381,32.1710636 L3.92757155,30.8578306 C4.10725979,29.7677614 3.57675164,28.6776922 2.60130117,28.1541156 L1.4290493,27.5189572 C0.0599960063,26.7808001 -0.350719981,25.0212396 0.539164658,23.7509227 L1.30925713,22.6608535 C1.94244428,21.7510319 1.9338877,20.5407976 1.28358738,19.6481425 L0.496381742,18.5666565 C-0.419172645,17.3135061 -0.0255698243,15.5453624 1.3263703,14.7900388 L2.4900656,14.1377139 C3.45695948,13.6055542 3.97035446,12.5069017 3.77355305,11.4168325 L3.53396873,10.1035995 C3.25160149,8.58436923 4.36395729,7.15097114 5.91269882,7.06513892 L7.24752578,6.98788992 C8.35132499,6.92780737 9.28399254,6.1639006 9.56635978,5.08241462 L9.91717969,3.7949313 C10.3278957,2.29286743 11.9536465,1.49462778 13.3825958,2.0868701 L14.6147438,2.59328021 C15.6329772,3.01385809 16.8052291,2.73061176 17.5325386,1.89803922 L18.4053101,0.885219009 C19.4235435,-0.282099197 21.2289825,-0.299265641 22.264329,0.859469342 L23.1542137,1.85512311 C23.8986364,2.68769565 25.0708883,2.94519231 26.0891217,2.50744799 L27.312713,1.97528822 C28.7416624,1.35729622 30.3759698,2.12978621 30.8037989,3.62326686 L31.171732,4.91075017 C31.479769,5.97506971 32.4295497,6.73039326 33.5333489,6.77330937 L34.8681759,6.83339192 C36.4169174,6.89347448 37.554943,8.30970613 37.2982455,9.83751966 L37.0757743,11.1593359 C36.8960861,12.2494051 37.4265942,13.3394743 38.4020447,13.8630508 L39.5742966,14.4982093 C40.9433499,15.2363664 41.3540658,16.9959269 40.4641812,18.2662438 L39.6940887,19.356313 C39.0609016,20.2661345 39.0694582,21.4763688 39.7197585,22.3690239 L40.5069641,23.4505099 Z M30.0666667,16.5696641 C30.0666667,16.4470899 30.0205771,16.3406438 29.9285268,16.2503576 L27.4628953,13.831129 C27.3445449,13.7408111 27.2328986,13.6956522 27.1275694,13.6956522 C27.0224658,13.6956522 26.9107227,13.7408111 26.7923079,13.831129 L17.16645,23.2951513 L14.2076921,20.3727231 C13.9841415,20.1791848 13.7605909,20.1791848 13.5370403,20.3727231 L11.0714087,22.7919517 C10.9793585,22.908138 10.9333333,23.0177148 10.9333333,23.1209352 C10.9333333,23.2241873 10.9793585,23.3338273 11.0714087,23.4499503 L16.8311241,29.0819145 C16.9231743,29.1722324 17.0283746,29.2173913 17.1467249,29.2173913 L17.16645,29.2173913 L17.186175,29.2173913 C17.3176754,29.2173913 17.4228757,29.1722324 17.5017759,29.0819145 L29.9285591,16.8890023 C30.0205126,16.7986844 30.0666667,16.6922384 30.0666667,16.5696641 Z" id="Combined-Shape"></path>
        </g>
    </g>
</svg>