<?xml version="1.0" encoding="UTF-8"?>
<svg width="47px" height="37px" viewBox="0 0 47 37" version="1.1" xmlns="http://www.w3.org/2000/svg" xmlns:xlink="http://www.w3.org/1999/xlink">
    <!-- Generator: Sketch 48.1 (47250) - http://www.bohemiancoding.com/sketch -->
    <title>open-book copy</title>
    <desc>Created with Sketch.</desc>
    <defs>
        <polygon id="path-1" points="0 37 47 37 47 0 0 0"></polygon>
    </defs>
    <g id="Layout-3" stroke="none" stroke-width="1" fill="none" fill-rule="evenodd" transform="translate(-290.000000, -427.000000)">
        <g id="open-book-copy" transform="translate(290.000000, 427.000000)">
            <mask id="mask-2" fill="white">
                <use xlink:href="#path-1"></use>
            </mask>
            <g id="Clip-2"></g>
            <path d="M27.7878243,36.6928849 C31.9424505,32.4806573 37.6171675,30.1061363 43.541402,30.1009309 C44.137934,30.0883052 44.6185355,29.6090817 44.6310835,29.0140116 L44.6310835,6.26113805 C45.4602543,6.45019157 46.2420089,6.71012632 47,6.96995031 L47,35.6768469 C40.6513527,33.9461267 33.911495,34.3108327 27.7878243,36.7164751 L27.7878243,36.6928849 Z M0,35.6768469 L0,6.92277 C0.758102128,6.68642541 1.5635093,6.42660141 2.36891646,6.21395773 L2.36891646,28.9904215 C2.38157556,29.5853807 2.862177,30.064715 3.45870909,30.07723 C9.39615785,30.0857579 15.0844223,32.4587284 19.2595918,36.669184 C13.1157109,34.2720696 6.35875233,33.9239763 0,35.6768469 Z M4.59580676,0 C11.8109358,0.5260716 18.3895566,4.31146133 22.457679,10.2777778 L22.457679,37 C18.0017885,31.637946 11.4981229,28.3818397 4.52473816,28.0216744 L4.59580676,0 Z M42.4990254,0 L42.4990254,28.0216744 C35.533969,28.388374 29.0401864,31.6438159 24.5897371,37 L24.5897371,10.2777778 C28.6406476,4.2695971 35.2551358,0.473685943 42.4990254,0 Z" id="Fill-1" fill="#5289B3" mask="url(#mask-2)"></path>
        </g>
    </g>
</svg>