<?xml version="1.0" encoding="UTF-8"?>
<svg width="30px" height="49px" viewBox="0 0 30 49" version="1.1" xmlns="http://www.w3.org/2000/svg" xmlns:xlink="http://www.w3.org/1999/xlink">
    <!-- Generator: Sketch 48.2 (47327) - http://www.bohemiancoding.com/sketch -->
    <title>028-idea-2 copy 3</title>
    <desc>Created with Sketch.</desc>
    <defs>
        <polygon id="path-1" points="0.00703125 0.0603227677 0.00703125 41.6264726 29.9908594 41.6264726 29.9908594 0.0603227677"></polygon>
    </defs>
    <g id="Page-1" stroke="none" stroke-width="1" fill="none" fill-rule="evenodd">
        <g id="028-idea-2-copy-3">
            <g id="Group-4" transform="translate(0.000000, 6.584942)">
                <mask id="mask-2" fill="white">
                    <use xlink:href="#path-1"></use>
                </mask>
                <g id="Clip-2"></g>
                <path d="M16.8274219,0.0603227677 C13.2256641,0.0603227677 10.2959766,3.0000288 10.2959766,6.61410339 C10.2959766,8.24516988 10.8878906,9.78851555 11.9687109,10.9933247 L15.4014844,10.9933247 L15.4014844,6.6710161 L18.2533594,6.6710161 L18.2533594,10.9933247 L21.6866016,10.9933247 C22.7668359,9.78851555 23.3592187,8.24516988 23.3592187,6.61410339 C23.3592187,3.0000288 20.4290625,0.0603227677 16.8274219,0.0603227677 Z" id="Fill-1" fill="#5289B3" mask="url(#mask-2)"></path>
                <path d="M28.7337891,13.8544818 L4.66371094,13.8544818 C3.87222656,15.5411675 3.44472656,17.3766023 3.41039062,19.2736534 L0.460047103,27.7868048 C0.27919826,28.3086401 0.555622447,28.8782782 1.07745781,29.0591271 C1.18277431,29.0956259 1.29345182,29.1142606 1.4049136,29.1142606 L3.40851562,29.1142606 L3.40851562,35.0951217 C3.40851562,35.6474064 3.85623088,36.0951217 4.40851562,36.0951217 L8.70640625,36.0951217 C9.258691,36.0951217 9.70640625,36.5428369 9.70640625,37.0951217 L9.70640625,40.6264726 C9.70640625,41.1787573 10.1541215,41.6264726 10.7064062,41.6264726 L24.3093359,41.6264726 C24.8616207,41.6264726 25.3093359,41.1787573 25.3093359,40.6264726 L25.3093359,29.682447 C28.2935156,27.1414827 29.9908594,23.4779034 29.9908594,19.5221174 C29.9908594,17.5364048 29.5600781,15.6146601 28.7337891,13.8544818 Z" id="Fill-3" fill="#5289B3" mask="url(#mask-2)"></path>
            </g>
            <polygon id="Fill-5" fill="#5289B3" points="3.72023438 14.6293883 8.40726562 14.6293883 8.40726562 11.7682312 3.72023438 11.7682312"></polygon>
            <polygon id="Fill-6" fill="#5289B3" points="6.55101562 4.91083772 8.56746094 2.88749685 11.8817578 6.2130099 9.8653125 8.23646835"></polygon>
            <polygon id="Fill-7" fill="#5289B3" points="21.7726172 6.2130099 25.0867969 2.88749685 27.1032422 4.91083772 23.7890625 8.23646835"></polygon>
            <polygon id="Fill-8" fill="#5289B3" points="25.2479297 14.6293883 29.9349609 14.6293883 29.9349609 11.7682312 25.2479297 11.7682312"></polygon>
            <polygon id="Fill-9" fill="#5289B3" points="15.4014844 4.75009459 18.2528906 4.75009459 18.2528906 0.0470352965 15.4014844 0.0470352965"></polygon>
        </g>
    </g>
</svg>