<?xml version="1.0" encoding="UTF-8"?>
<svg width="46px" height="44px" viewBox="0 0 46 44" version="1.1" xmlns="http://www.w3.org/2000/svg" xmlns:xlink="http://www.w3.org/1999/xlink">
    <!-- Generator: Sketch 48.2 (47327) - http://www.bohemiancoding.com/sketch -->
    <title>015-open-book-23 copy</title>
    <desc>Created with Sketch.</desc>
    <defs></defs>
    <g id="Page-1" stroke="none" stroke-width="1" fill="none" fill-rule="evenodd">
        <g id="015-open-book-23-copy" fill="#5289B3" fill-rule="nonzero">
            <path d="M4.47744208,25.3445459 L4.47744208,29.1877221 C11.288052,29.524 17.644208,32.7190769 21.9930024,37.9920893 L21.9930024,35.4299355 C18.0209078,29.5309876 11.5546998,25.8078015 4.47744208,25.3445459 Z" id="Shape"></path>
            <path d="M2.31990071,36.1986799 L2.31990071,13.6520099 C1.53115839,13.8848933 0.742416076,14.1178859 0,14.3973896 L0,42.720397 C6.22033097,41.0102928 12.8268227,41.386531 18.8146525,43.7917916 C14.7255461,39.6245658 9.14399527,37.2757519 3.31743735,37.2700744 C2.74999527,37.2448536 2.30674232,36.7688238 2.31990071,36.1986799 Z" id="Shape"></path>
            <path d="M4.47744208,31.2374888 L4.47744208,35.1272854 C11.2865296,35.4892208 17.6357258,38.6892109 21.9930024,43.9549082 L21.9930024,41.3694988 C18.0259102,35.457995 11.5610071,31.7183226 4.47744208,31.2374888 Z" id="Shape"></path>
            <path d="M41.7588652,24.3197717 L41.8516265,7.75917618 C41.8460804,7.11227792 41.5878061,6.49333002 41.1324823,6.0355335 C40.6911868,5.57074938 40.0783972,5.30947891 39.4389645,5.31351861 C38.1827187,5.37225806 37.1775697,6.38141935 37.1190638,7.6426799 L37.1190638,24.3197717 C37.8089551,23.8608834 38.6119433,23.6028883 39.4389645,23.5743921 C40.2645721,23.6109677 41.0654941,23.8683077 41.7588652,24.3197717 Z" id="Shape"></path>
            <path d="M41.7588652,3.89263524 L41.7588652,2.35536476 C41.6898109,1.09879901 40.6904255,0.0955334988 39.4389645,0.0262034739 L39.2533333,0.00294789082 C38.0269929,0.156565757 37.1094941,1.20787097 37.1189551,2.44860546 L37.1189551,3.89274442 C37.8092813,3.43494789 38.612052,3.17706203 39.4388558,3.14736476 C40.2645721,3.18394045 41.0654941,3.44117122 41.7588652,3.89263524 Z" id="Shape"></path>
            <path d="M41.5500709,28.3259553 L41.5500709,28.093072 C41.491565,26.8318114 40.4864161,25.8226501 39.2301702,25.7639107 C37.9489125,25.7639107 36.9102695,26.8066998 36.9102695,28.093072 C36.9102695,28.1862035 36.9102695,28.3259553 36.9102695,28.3259553 L39.2301702,33.3570223 L41.5500709,28.3259553 Z" id="Shape"></path>
            <path d="M43.6380142,13.6752655 L43.6380142,27.9998313 C43.6380142,28.1628387 43.6380142,28.1628387 43.6380142,28.1628387 C43.6416028,28.2093499 43.6416028,28.2560794 43.6380142,28.3025906 C43.7034799,28.4991166 43.7034799,28.7116923 43.6380142,28.9082184 L40.6684586,35.266928 C41.3180047,35.1271762 41.9908227,35.1271762 42.6868038,35.1271762 L42.6868038,37.2467097 C36.874818,37.2569727 31.3094704,39.6061141 27.2360236,43.7684268 L27.2591868,43.7916824 C33.211565,41.408804 39.7741229,41.0327841 45.9579149,42.7202878 L45.9579149,14.420536 C45.2619338,14.1178859 44.4500284,13.9082581 43.6380142,13.6752655 Z" id="Shape"></path>
            <path d="M34.7294563,28.7452109 C34.655182,28.534273 34.655182,28.3040099 34.7294563,28.093072 C34.7211915,28.0468883 34.7211915,27.9995037 34.7294563,27.9533201 C34.7294563,27.8834442 34.7294563,27.7204367 34.7294563,27.7204367 L34.7294563,9.08681886 C34.1726714,9.29644665 33.6390496,9.57595037 33.1982979,9.73895782 L33.1982979,14.3973896 L31.1103546,14.3973896 L31.1103546,10.8803375 C28.3214279,12.6634839 25.8963688,14.9638213 23.9649125,17.6583027 L23.9649125,43.8151563 C27.5459527,39.5515236 32.446747,36.6157519 37.8845343,35.476665 L34.7294563,28.7452109 Z" id="Shape"></path>
            <path d="M4.47744208,13.4890025 L4.47744208,17.3089231 C11.288052,17.645201 17.644208,20.8402779 21.9930024,26.1132903 L21.9930024,23.5743921 C18.0209078,17.675335 11.5546998,13.9521489 4.47744208,13.4890025 Z" id="Shape"></path>
            <path d="M4.47744208,19.3818362 L4.47744208,23.2250124 C11.2931631,23.5814888 17.647253,26.792397 21.9930024,32.076 L21.9930024,29.5138462 C18.0259102,23.6024516 11.5610071,19.8627792 4.47744208,19.3818362 Z" id="Shape"></path>
            <path d="M4.47744208,7.50292804 L4.47744208,11.3461042 C11.2908794,11.7110968 17.6418156,14.9203672 21.9930024,20.1970918 L21.9930024,17.6583027 C18.033305,11.735335 11.566227,7.98572705 4.47744208,7.50292804 Z" id="Shape"></path>
        </g>
    </g>
</svg>