<?xml version="1.0" encoding="UTF-8"?>
<svg width="36px" height="45px" viewBox="0 0 36 45" version="1.1" xmlns="http://www.w3.org/2000/svg" xmlns:xlink="http://www.w3.org/1999/xlink">
    <!-- Generator: Sketch 48.2 (47327) - http://www.bohemiancoding.com/sketch -->
    <title>Group 12 Copy</title>
    <desc>Created with Sketch.</desc>
    <defs></defs>
    <g id="Page-1" stroke="none" stroke-width="1" fill="none" fill-rule="evenodd">
        <g id="Group-12-Copy" fill="#5289B3">
            <path d="M30,3 L6,3 C4.8954305,3 4,3.8954305 4,5 L4,26 L2,26 C0.8954305,26 1.3527075e-16,25.1045695 0,24 L0,2 C-1.3527075e-16,0.8954305 0.8954305,2.02906125e-16 2,0 L28,0 C29.1045695,-2.02906125e-16 30,0.8954305 30,2 L30,3 Z" id="Combined-Shape"></path>
            <path d="M30.9360327,31 C32.254319,28.3938555 32.2726908,25.1948286 30.7034132,22.4767602 C28.2317923,18.1957871 22.7577332,16.7290174 18.4767602,19.2006383 C14.3369701,21.5907472 12.8288239,26.7885239 14.9689124,31 L8,31 C6.8954305,31 6,30.1045695 6,29 L6,7 C6,5.8954305 6.8954305,5 8,5 L34,5 C35.1045695,5 36,5.8954305 36,7 L36,29 C36,30.1045695 35.1045695,31 34,31 L30.9360327,31 Z M22.0124512,9 L22.0124512,11 L30,11 L30,9 L22.0124512,9 Z M10,9 L10,15 L18,15 L18,9 L10,9 Z" id="Combined-Shape"></path>
            <path d="M25.2416232,33.7155237 C22.0203198,34.7949497 18.3783034,33.4986954 16.6138565,30.4425837 C14.5996067,26.9538007 15.794952,22.4927111 19.2837351,20.4784613 C22.7725181,18.4642115 27.2336076,19.6595569 29.2478574,23.1483399 C31.0123043,26.2044515 30.3138853,30.0066575 27.7684233,32.256675 L33.593588,42.3461561 C33.8697304,42.8244487 33.7058552,43.4360392 33.2275626,43.7121815 L32.4328132,44.1710303 C31.9545206,44.4471727 31.3429302,44.2832975 31.0667878,43.8050049 L25.2416232,33.7155237 Z M22.930857,32.2100336 C25.8083567,32.2100336 28.1410312,29.8773592 28.1410312,26.9998595 C28.1410312,24.1223597 25.8083567,21.7896853 22.930857,21.7896853 C20.0533572,21.7896853 17.7206828,24.1223597 17.7206828,26.9998595 C17.7206828,29.8773592 20.0533572,32.2100336 22.930857,32.2100336 Z" id="Combined-Shape"></path>
        </g>
    </g>
</svg>