<?xml version="1.0" encoding="UTF-8"?>
<svg width="40px" height="40px" viewBox="0 0 40 40" version="1.1" xmlns="http://www.w3.org/2000/svg" xmlns:xlink="http://www.w3.org/1999/xlink">
    <!-- Generator: Sketch 48.2 (47327) - http://www.bohemiancoding.com/sketch -->
    <title>screwdriver-and-wrench-crossed copy</title>
    <desc>Created with Sketch.</desc>
    <defs></defs>
    <g id="Page-1" stroke="none" stroke-width="1" fill="none" fill-rule="evenodd">
        <g id="screwdriver-and-wrench-crossed-copy" fill="#5289B3" fill-rule="nonzero">
            <path d="M1.11540278,33.5017228 C-0.371800928,34.9892239 -0.371800928,37.3981674 1.11540278,38.8856685 C1.85900464,39.629419 2.8335263,40 3.80813145,40 C4.7827366,40 5.75725826,39.629419 6.50086012,38.8856685 L19,26.3814406 L13.6145427,21 L1.11540278,33.5017228 Z" id="Shape"></path>
            <polygon id="Shape" points="31.9913838 10.6008429 37.2479929 7.88380218 40 2.56504632 37.4342117 0 32.1163358 2.75370955 29.3936723 8.00388258 23 14.4030397 25.592794 17"></polygon>
            <path d="M33.0025021,25.0499493 L32.4974763,24.9999486 C31.5824923,24.9999486 30.7149598,25.1874513 29.9049941,25.4874556 L14.5124396,10.0924972 C14.8124451,9.2825349 14.9999486,8.41500597 14.9999486,7.5000257 L14.9499477,6.99500198 C14.6849757,3.09247872 11.4699491,0 7.4999743,0 C6.34493648,0 5.2624329,0.282487618 4.28494771,0.750010794 L9.26744121,5.73248381 C9.52994607,5.99498759 9.70996585,6.30494271 9.82995162,6.63249677 C10.1574248,7.51746016 9.9799544,8.55250795 9.26744121,9.26748535 C8.77993219,9.75499236 8.13995325,9.99997944 7.4999743,9.99997944 C7.20498529,9.99997944 6.91246343,9.9350114 6.6324418,9.82999344 C6.30496864,9.70499164 5.99493,9.52998912 5.73242515,9.26501821 L0.750013878,4.28501233 C0.28248878,5.2624935 0,6.34499263 0,7.5000257 C0,11.4699841 3.09249143,14.6849975 6.99503075,14.9499684 L7.50005654,14.9999692 C8.41504057,14.9999692 9.28257307,14.8124665 10.0925387,14.5150115 L25.4825439,29.9075028 C25.1875549,30.7174651 25.0000514,31.584994 25.0000514,32.4999743 L25.0525195,33.004998 C25.3125572,36.9099884 28.5300509,40 32.5000257,40 C33.6550635,40 34.7400343,39.7225289 35.7150523,39.2499892 L30.7325588,34.2675162 C30.4725211,34.0074795 30.2900341,33.6950573 30.1650318,33.3700526 C29.8375587,32.4850892 30.0150291,31.4475743 30.7325588,30.7325969 C31.2150513,30.2450899 31.8600468,30.0001028 32.5000257,30.0001028 C32.7950147,30.0001028 33.0849872,30.0626037 33.3700253,30.1700888 C33.6974985,30.2926235 34.0100043,30.467626 34.2674926,30.7325969 L39.2499861,35.7150699 C39.7199784,34.7350394 40,33.6550896 40,32.5000565 C39.9975328,28.5299336 36.9050414,25.3149202 33.0025021,25.0499493 Z" id="Shape"></path>
        </g>
    </g>
</svg>