<?xml version="1.0" encoding="UTF-8"?>
<svg width="43px" height="39px" viewBox="0 0 43 39" version="1.1" xmlns="http://www.w3.org/2000/svg" xmlns:xlink="http://www.w3.org/1999/xlink">
    <!-- Generator: Sketch 48.1 (47250) - http://www.bohemiancoding.com/sketch -->
    <title>headphones copy 2</title>
    <desc>Created with Sketch.</desc>
    <defs></defs>
    <g id="Page-1" stroke="none" stroke-width="1" fill="none" fill-rule="evenodd">
        <g id="headphones-copy-2" fill="#5289B3" fill-rule="nonzero">
            <path d="M21.4916307,0 C9.641298,0.0547297118 0,9.68916318 0,21.4764014 C0,25.05611 0.90225885,28.5850202 2.60843708,31.7120138 L2.60843708,26.0339989 C2.60843708,24.9875051 2.98288651,24.0168621 3.63925793,23.1841226 C3.58493487,22.6178628 3.55695965,22.047903 3.55695965,21.4764014 C3.55695965,11.6309117 11.6097148,3.5839482 21.4916307,3.53823733 C31.3898977,3.58379403 39.4426529,11.6309117 39.4426529,21.4764014 C39.4426529,22.109339 39.4073933,22.7400411 39.3408262,23.3665036 C39.9112571,24.1572323 40.2333983,25.0632788 40.2333983,26.0339989 L40.2333983,32 C42.0428756,28.8027827 43,25.1660319 43,21.4764014 C42.9999225,9.68916318 33.3586245,0.0547297118 21.4916307,0 Z" id="Shape"></path>
            <path d="M4.13316746,25.5682099 C4.04626754,25.8645062 4,26.1714506 4,26.4861111 L4,31.9640432 L4,34.5138117 C4,36.991358 6.83544377,39 10.3333883,39 L13,39 L13,22 L10.3333883,22 C7.27965662,22 4.73145715,23.5307099 4.13316746,25.5682099 Z" id="Shape"></path>
            <path d="M39,34.5138685 L39,31.8748905 L39,26.4861315 C39,26.2927664 38.9807219,26.1024106 38.9471334,25.9154499 C38.5511901,23.707338 35.8913257,22 32.6666859,22 L30,22 L30,39 L32.6666859,39 C36.1646304,39 39,36.9914261 39,34.5138685 Z" id="Shape"></path>
        </g>
    </g>
</svg>