<?xml version="1.0" encoding="UTF-8"?>
<svg width="42px" height="36px" viewBox="0 0 42 36" version="1.1" xmlns="http://www.w3.org/2000/svg" xmlns:xlink="http://www.w3.org/1999/xlink">
    <!-- Generator: Sketch 48.2 (47327) - http://www.bohemiancoding.com/sketch -->
    <title>multiple-files-stack copy</title>
    <desc>Created with Sketch.</desc>
    <defs></defs>
    <g id="Page-1" stroke="none" stroke-width="1" fill="none" fill-rule="evenodd">
        <g id="multiple-files-stack-copy" fill="#5289B3" fill-rule="nonzero">
            <path d="M6,2.6760016 L37.8518311,2.6760016 C38.4041158,2.6760016 38.8518311,3.12371685 38.8518311,3.6760016 L38.8518311,33 L41,33 C41.5522847,33 42,32.5522847 42,32 L42,1 C42,0.44771525 41.5522847,-1.01453063e-16 41,0 L7,-1.11022302e-16 C6.44771525,-9.5692398e-18 6,0.44771525 6,1 L6,2.6760016 Z" id="Shape"></path>
            <path d="M2,36 L34,36 C35.1045695,36 36,35.1045695 36,34 L36,6 C36,4.8954305 35.1045695,4 34,4 L2,4 C0.8954305,4 -1.3527075e-16,4.8954305 0,6 L0,34 C1.3527075e-16,35.1045695 0.8954305,36 2,36 Z M12,11.7837838 L29.6580008,11.7837838 L29.6580008,13.7837838 L12,13.7837838 L12,11.7837838 Z M12,19.3618601 L26.2947497,19.3618601 L26.2947497,21.3618601 L12,21.3618601 L12,19.3618601 Z M12,26.9399363 L27.1919992,26.9399363 L27.1919992,28.9399363 L12,28.9399363 L12,26.9399363 Z M6,11.7837838 L8.25,11.7837838 L8.25,13.7837838 L6,13.7837838 L6,11.7837838 Z M6,19.3618601 L8.25,19.3618601 L8.25,21.3618601 L6,21.3618601 L6,19.3618601 Z M6,26.9399363 L8.25,26.9399363 L8.25,28.9399363 L6,28.9399363 L6,26.9399363 Z" id="Shape"></path>
        </g>
    </g>
</svg>