<?xml version="1.0" encoding="UTF-8"?>
<svg width="48px" height="46px" viewBox="0 0 48 46" version="1.1" xmlns="http://www.w3.org/2000/svg" xmlns:xlink="http://www.w3.org/1999/xlink">
    <!-- Generator: Sketch 48.2 (47327) - http://www.bohemiancoding.com/sketch -->
    <title>teacher-reading copy</title>
    <desc>Created with Sketch.</desc>
    <defs></defs>
    <g id="Page-1" stroke="none" stroke-width="1" fill="none" fill-rule="evenodd">
        <g id="teacher-reading-copy" fill="#5289B3" fill-rule="nonzero">
            <path d="M47.1864407,34.8436109 L36.2033898,19.5931341 L35.7966102,18.8766688 C35.457661,18.3991958 34.898339,17.9216205 34.1186441,17.4437381 C33.3389492,16.9660604 32.440678,16.7272727 31.4237288,16.7272727 L16.5762712,16.7272727 C15.559322,16.7272727 14.6440678,16.9831532 13.8305085,17.4949142 C13.0169492,18.0066751 12.4914915,18.4331767 12.2542373,18.7743166 C12.0169831,19.1154565 11.8644407,19.3884298 11.7966102,19.5931341 L0.813559322,34.8436109 C0.271220339,35.5941596 0,36.4129771 0,37.3000636 C0,38.460021 0.423762712,39.4665524 1.27118644,40.3194533 C2.11861017,41.1723541 3.11867797,41.5988557 4.27118644,41.5988557 C4.81352542,41.5988557 5.3559661,41.4965035 5.89830508,41.2917991 L12.5084746,39.3471074 L12.5084746,46 L35.4915254,46 L35.4915254,39.3471074 L42.1016949,41.2917991 C42.6440339,41.4965035 43.1864746,41.5988557 43.7288136,41.5988557 C44.881322,41.5988557 45.8813898,41.1723541 46.7288136,40.3194533 C47.5762373,39.4665524 48,38.460021 48,37.3000636 C48,36.4129771 47.7287797,35.5941596 47.1864407,34.8436109 Z M35.4915254,30.8518754 L34.6779661,30.5448188 C33.5254576,30.2718455 32.4915254,30.2718455 31.5762712,30.5448188 C30.6610169,30.8177921 30,31.3295531 29.5932203,32.0801017 C29.1864407,32.8306503 28.9660678,33.6153846 28.9322034,34.4342022 C28.898339,35.2530197 29.1864407,36.0547444 29.7966102,36.8394787 C30.4067797,37.624213 31.2881695,38.18715 32.440678,38.5282899 L32.5423729,38.5282899 L24,41.3941513 L15.4576271,38.5282899 L15.6610169,38.5282899 C16.7457966,38.18715 17.5932203,37.624213 18.2033898,36.8394787 C18.8135593,36.0547444 19.101661,35.2530197 19.0677966,34.4342022 C19.0339322,33.6153846 18.8135593,32.8306503 18.4067797,32.0801017 C18,31.3295531 17.3389831,30.8177921 16.4237288,30.5448188 C15.5084746,30.2718455 14.4745424,30.2718455 13.3220339,30.5448188 L12.5084746,30.8518754 L12.5084746,21.9472346 L24,25.7342657 L35.4915254,21.9472346 L35.4915254,30.8518754 Z" id="Shape"></path>
            <path d="M24,14.6363636 C26.0207702,14.6363636 27.7433043,13.9227662 29.1677019,12.495671 C30.5920994,11.0684762 31.3043478,9.34267965 31.3043478,7.31818182 C31.3043478,5.29358442 30.5920994,3.56778788 29.1677019,2.14069264 C27.7433043,0.713597403 26.0206708,0 24,0 C21.9792298,0 20.2566957,0.713597403 18.8322981,2.14069264 C17.4079006,3.56778788 16.6956522,5.29368398 16.6956522,7.31818182 C16.6956522,9.34267965 17.4079006,11.0685758 18.8322981,12.495671 C20.2566957,13.9227662 21.9793292,14.6363636 24,14.6363636 Z" id="Shape"></path>
        </g>
    </g>
</svg>