<?xml version="1.0" encoding="UTF-8"?>
<svg width="56px" height="40px" viewBox="0 0 56 40" version="1.1" xmlns="http://www.w3.org/2000/svg" xmlns:xlink="http://www.w3.org/1999/xlink">
    <!-- Generator: Sketch 48.2 (47327) - http://www.bohemiancoding.com/sketch -->
    <title>school-teacher</title>
    <desc>Created with Sketch.</desc>
    <defs>
        <rect id="path-1" x="0" y="0" width="65" height="42"></rect>
    </defs>
    <g id="Page-1" stroke="none" stroke-width="1" fill="none" fill-rule="evenodd">
        <g id="school-teacher" transform="translate(-2.000000, -2.000000)">
            <mask id="mask-2" fill="white">
                <use xlink:href="#path-1"></use>
            </mask>
            <g id="Mask"></g>
            <g mask="url(#mask-2)" fill="#5289B3" fill-rule="nonzero">
                <g transform="translate(2.910448, 2.863636)">
                    <ellipse id="Oval" cx="30.5597015" cy="8.11363636" rx="8.24626866" ry="8.11363636"></ellipse>
                    <path d="M51.610706,30.5998001 C49.8264676,26.7685946 47.5601583,23.1293258 44.1683768,20.4967833 C43.8053832,20.2145236 43.4231835,20.0263504 43.0429045,19.8814571 C43.0160161,19.8513494 43.0025719,19.8155965 42.9756835,19.7873705 C37.874567,17.2489146 27.368879,17.9037572 22.0315286,18.6545681 C21.7031058,18.6564498 21.3593182,18.690321 20.9867216,18.7919345 C20.7792967,18.8483864 20.5680305,18.8784941 20.358685,18.9236557 C20.2184811,18.9499999 20.0609919,18.9763442 19.9380734,19.0026884 L19.9380734,19.0139788 C16.9784271,19.559681 13.9323538,19.096775 11.0648963,18.1653179 C9.57450989,14.9513203 8.40486382,11.5905478 7.80179508,8.10181742 C7.77106546,7.92493465 7.71344743,7.77251439 7.6654324,7.61068548 L6.15391934,0.877849906 C6.01755667,0.27381407 5.41256732,-0.108177439 4.80373678,0.0273072342 C4.19298563,0.160910176 3.80502421,0.761182548 3.94330749,1.36521838 L4.76148355,5.01765937 C2.36073219,4.5961515 -0.468313221,6.22761277 0.0656138827,9.31741602 C0.684047434,12.892706 1.76726645,16.4134258 3.20579667,19.7478541 C4.00668732,21.6032415 4.74803935,24.1059445 6.82805033,24.9075621 C10.7383942,26.4110656 15.2594891,27.3801574 19.5174617,26.9285418 L19.3618931,29.8489892 C19.3695755,35.8592399 19.4022257,58.4230832 19.4022257,58.7410958 L19.5616356,92.5859199 C19.5616356,95.1751825 21.7376766,97.2733132 24.4226769,97.2733132 C27.1076773,97.2733132 29.2875595,95.1751825 29.2875595,92.5859199 L29.2875595,59.7873386 C29.2875595,59.7873386 29.2433857,58.1709311 30.9527206,58.1878667 C32.6639762,58.206684 32.8195449,59.868253 32.8195449,59.868253 L32.8195449,92.6781247 C32.8195449,95.2655057 34.9955859,97.3636364 37.6805863,97.3636364 C40.3694278,97.3636364 42.2823465,95.2655057 42.2823465,92.6781247 L42.2823465,61.1873469 L42.2689023,56.1969947 C46.0659306,53.7827331 49.0236563,50.2940028 51.1439999,46.3574203 C52.3078842,44.1953107 54.3283565,41.1732498 54.3283565,38.6009228 C54.3302771,35.9740255 52.6766396,32.8898674 51.610706,30.5998001 Z M46.0659306,39.0468932 C45.5454477,40.1966311 45.0096,41.3482509 44.3796429,42.4434186 C43.7208767,43.583748 43.0121749,44.6713888 42.2400933,45.700696 L42.1997606,29.7567844 C44.0800291,32.3554557 45.3956409,35.3944522 46.2964028,38.452266 C46.2464671,38.6216218 46.1715637,38.8154402 46.0659306,39.0468932 Z M46.3885916,38.115436 C46.386671,37.7202724 46.4711775,37.7259176 46.3885916,38.115436 Z" id="Shape"></path>
                </g>
            </g>
        </g>
    </g>
</svg>