<?xml version="1.0" encoding="UTF-8"?>
<svg width="46px" height="34px" viewBox="0 0 46 34" version="1.1" xmlns="http://www.w3.org/2000/svg" xmlns:xlink="http://www.w3.org/1999/xlink">
    <!-- Generator: Sketch 48 (47235) - http://www.bohemiancoding.com/sketch -->
    <title>“ copy 2</title>
    <desc>Created with Sketch.</desc>
    <defs></defs>
    <g id="Page-1" stroke="none" stroke-width="1" fill="none" fill-rule="evenodd">
        <path d="M45.53,4.93 C42.1606498,5.99400532 39.47851,7.58998936 37.4835,9.718 C35.48849,11.8460106 34.7126645,14.5946498 35.156,17.964 C36.1313382,18.762004 37.5056578,19.5821625 39.279,20.4245 C41.0523422,21.2668375 42.6039933,21.9096645 43.934,22.353 C44.2886684,23.7716738 44.2886684,25.1459934 43.934,26.476 C43.5793316,27.8060066 43.003004,28.9808282 42.205,30.0005 C41.406996,31.0201718 40.4760053,31.8624967 39.412,32.5275 C38.3479947,33.1925033 37.3726711,33.5693329 36.486,33.658 C33.3826512,33.3919987 30.6783449,32.2393435 28.373,30.2 C26.0676551,28.1606565 24.915,25.2346857 24.915,21.422 C24.915,19.2053222 25.2918296,16.9886777 26.0455,14.772 C26.7991704,12.5553223 27.9296591,10.4938429 29.437,8.5875 C30.9443409,6.68115714 32.8506551,4.99650732 35.156,3.5335 C37.4613449,2.07049268 40.209984,1.02866977 43.402,0.408 L45.53,4.93 Z M21.324,4.93 C17.9546498,5.99400532 15.27251,7.58998936 13.2775,9.718 C11.28249,11.8460106 10.5066645,14.5946498 10.95,17.964 C11.9253382,18.762004 13.2996578,19.5821625 15.073,20.4245 C16.8463422,21.2668375 18.3979933,21.9096645 19.728,22.353 C20.0826684,23.7716738 20.0826684,25.1459934 19.728,26.476 C19.3733316,27.8060066 18.797004,28.9808282 17.999,30.0005 C17.200996,31.0201718 16.2700053,31.8624967 15.206,32.5275 C14.1419947,33.1925033 13.1666711,33.5693329 12.28,33.658 C9.17665115,33.3919987 6.47234486,32.2393435 4.167,30.2 C1.86165514,28.1606565 0.709,25.2346857 0.709,21.422 C0.709,19.2053222 1.08582956,16.9886777 1.8395,14.772 C2.59317043,12.5553223 3.72365913,10.4938429 5.231,8.5875 C6.73834087,6.68115714 8.64465514,4.99650732 10.95,3.5335 C13.2553449,2.07049268 16.003984,1.02866977 19.196,0.408 L21.324,4.93 Z" id="“-copy-2" fill="#5289B3"></path>
    </g>
</svg>